<svg xmlns="http://www.w3.org/2000/svg" viewBox="0 0 512 512">
  <defs>
    <linearGradient id="bg-grad" x1="0%" y1="0%" x2="100%" y2="100%">
      <stop offset="0%" stop-color="#0f172a" />
      <stop offset="100%" stop-color="#1e293b" />
    </linearGradient>
    <linearGradient id="doc-grad" x1="0%" y1="0%" x2="100%" y2="100%">
      <stop offset="0%" stop-color="#3b82f6" />
      <stop offset="100%" stop-color="#2563eb" />
    </linearGradient>
    <linearGradient id="spark-grad" x1="0%" y1="100%" x2="100%" y2="0%">
      <stop offset="0%" stop-color="#06b6d4" />
      <stop offset="100%" stop-color="#22d3ee" />
    </linearGradient>
    <filter id="glow" x="-20%" y="-20%" width="140%" height="140%">
      <feGaussianBlur stdDeviation="12" result="blur" />
      <feComposite in="SourceGraphic" in2="blur" operator="over" />
    </filter>
  </defs>
  
  <!-- Background -->
  <rect width="512" height="512" rx="112" fill="url(#bg-grad)" />
  
  <!-- Document Shape -->
  <path d="M176 128h112c24 0 48 12 64 32l32 40c16 20 16 48 16 72v112c0 35.3-28.7 64-64 64H176c-35.3 0-64-28.7-64-64V192c0-35.3 28.7-64 64-64z" fill="url(#doc-grad)" />
  
  <!-- Folded Corner -->
  <path d="M288 128v56c0 13.3 10.7 24 24 24h64L288 128z" fill="#60a5fa" opacity="0.8" />
  
  <!-- AI Spark / Eye -->
  <path d="M256 224c-35.3 0-64 28.7-64 64s28.7 64 64 64 64-28.7 64-64-28.7-64-64-64zm0 96c-17.7 0-32-14.3-32-32s14.3-32 32-32 32 14.3 32 32-14.3 32-32 32z" fill="url(#spark-grad)" filter="url(#glow)" />
  <circle cx="256" cy="288" r="16" fill="#ffffff" />
  
  <!-- Document Lines -->
  <rect x="160" y="384" width="128" height="16" rx="8" fill="#93c5fd" opacity="0.5" />
  <rect x="160" y="416" width="80" height="16" rx="8" fill="#93c5fd" opacity="0.5" />
</svg>
